<?xml version="1.0" encoding="UTF-8" standalone="no"?>
<!-- Created with Inkscape (http://www.inkscape.org/) -->

<svg
   width="1600mm"
   height="1600mm"
   viewBox="0 0 1600 1600"
   version="1.1"
   id="svg1"
   inkscape:version="1.4.3 (fcd0343856, 2026-01-01)"
   sodipodi:docname="bevy_transform_combination_object.svg"
   xmlns:inkscape="http://www.inkscape.org/namespaces/inkscape"
   xmlns:sodipodi="http://sodipodi.sourceforge.net/DTD/sodipodi-0.dtd"
   xmlns="http://www.w3.org/2000/svg"
   xmlns:svg="http://www.w3.org/2000/svg">
  <sodipodi:namedview
     id="namedview1"
     pagecolor="#505050"
     bordercolor="#eeeeee"
     borderopacity="1"
     inkscape:showpageshadow="0"
     inkscape:pageopacity="0"
     inkscape:pagecheckerboard="0"
     inkscape:deskcolor="#505050"
     inkscape:document-units="mm"
     showguides="true"
     showgrid="false"
     inkscape:lockguides="true"
     inkscape:zoom="0.097175354"
     inkscape:cx="1769.9961"
     inkscape:cy="3401.0681"
     inkscape:window-width="1854"
     inkscape:window-height="1011"
     inkscape:window-x="0"
     inkscape:window-y="0"
     inkscape:window-maximized="1"
     inkscape:current-layer="layer1">
    <sodipodi:guide
       position="1400,1600"
       orientation="-1,0"
       id="guide1"
       inkscape:locked="true"
       inkscape:label=""
       inkscape:color="rgb(0,134,229)" />
    <sodipodi:guide
       position="200,1311.268"
       orientation="-1,0"
       id="guide2"
       inkscape:locked="true"
       inkscape:label=""
       inkscape:color="rgb(0,134,229)" />
    <sodipodi:guide
       position="357.77666,1400"
       orientation="0,1"
       id="guide3"
       inkscape:locked="true"
       inkscape:label=""
       inkscape:color="rgb(0,134,229)" />
    <sodipodi:guide
       position="698.81522,200"
       orientation="0,1"
       id="guide4"
       inkscape:locked="true"
       inkscape:label=""
       inkscape:color="rgb(0,134,229)" />
    <inkscape:grid
       id="grid4"
       units="mm"
       originx="0"
       originy="0"
       spacingx="0.99999999"
       spacingy="0.99999999"
       empcolor="#0099e5"
       empopacity="0.30196078"
       color="#0099e5"
       opacity="0.14901961"
       empspacing="5"
       enabled="true"
       visible="false" />
  </sodipodi:namedview>
  <defs
     id="defs1">
    <marker
       style="overflow:visible"
       id="RoundedArrow"
       refX="0"
       refY="0"
       orient="auto-start-reverse"
       inkscape:stockid="Rounded arrow"
       markerWidth="0.5"
       markerHeight="0.5"
       viewBox="0 0 1 1"
       inkscape:isstock="true"
       inkscape:collect="always"
       preserveAspectRatio="xMidYMid">
      <path
         transform="scale(0.7)"
         d="m -0.21114562,-4.1055728 6.42229122,3.21114561 a 1,1 90 0 1 0,1.78885438 L -0.21114562,4.1055728 A 1.236068,1.236068 31.717474 0 1 -2,3 v -6 a 1.236068,1.236068 148.28253 0 1 1.78885438,-1.1055728 z"
         style="fill:context-stroke;fill-rule:evenodd;stroke:none"
         id="path8" />
    </marker>
  </defs>
  <g
     inkscape:label="Layer 1"
     inkscape:groupmode="layer"
     id="layer1">
    <path
       style="fill:#000000;fill-opacity:0;stroke:#e5e5e5;stroke-width:100;stroke-linecap:round;stroke-dasharray:none;marker-start:url(#RoundedArrow);paint-order:markers fill stroke"
       d="m 440,800 h 20"
       id="path4"
       sodipodi:nodetypes="cc" />
    <rect
       style="fill:#000000;fill-opacity:0;stroke:#e5e5e5;stroke-width:75;stroke-linecap:round;stroke-dasharray:none;paint-order:markers fill stroke"
       id="rect5"
       width="260"
       height="260"
       x="670"
       y="670"
       ry="43.937481" />
    <path
       id="path1"
       style="fill-opacity:0;stroke:#e5e5e5;stroke-width:92.3076;stroke-linecap:round;paint-order:markers fill stroke"
       d="m 288.31284,588.05224 c 13.78558,-33.28134 30.81698,-65.21821 50.89363,-95.32639 20.07665,-30.10818 43.19856,-58.38767 69.16513,-84.35425 25.96658,-25.96658 54.24607,-49.08848 84.35425,-69.16513 30.10818,-20.07665 62.04505,-37.10805 95.32639,-50.89363 m 423.89556,0 c 33.2813,13.78556 65.2182,30.81696 95.3263,50.89362 30.1082,20.07666 58.3877,43.19857 84.3543,69.16514 25.9666,25.96658 49.0885,54.24607 69.1652,84.35425 20.0766,30.10818 37.108,62.04505 50.8936,95.32639 m 0,423.89556 c -13.7855,33.2813 -30.8169,65.2182 -50.8936,95.3264 -20.0767,30.1082 -43.1986,58.3877 -69.1652,84.3542 -25.9666,25.9666 -54.2461,49.0885 -84.3543,69.1651 -30.1082,20.0767 -62.045,37.1081 -95.3263,50.8937 m -423.89556,0 c -33.28135,-13.7856 -65.21823,-30.817 -95.3264,-50.8936 -30.10818,-20.0767 -58.38766,-43.1986 -84.35424,-69.1652 -25.96658,-25.9666 -49.08848,-54.2461 -69.16513,-84.3543 -20.07665,-30.1081 -37.10805,-62.045 -50.89363,-95.3263"
       sodipodi:nodetypes="csssccsssccsssccsssc" />
    <path
       style="fill:#000000;fill-opacity:0;stroke:#e5e5e5;stroke-width:100;stroke-linecap:round;stroke-dasharray:none;marker-start:url(#RoundedArrow);paint-order:markers fill stroke"
       d="m 800,436.73762 v 20"
       id="path2"
       sodipodi:nodetypes="cc" />
    <path
       style="fill:#000000;fill-opacity:0;stroke:#e5e5e5;stroke-width:100;stroke-linecap:round;stroke-dasharray:none;marker-start:url(#RoundedArrow);paint-order:markers fill stroke"
       d="m 1160,800 h -20"
       id="path3"
       sodipodi:nodetypes="cc" />
    <path
       style="fill:#000000;fill-opacity:0;stroke:#e5e5e5;stroke-width:100;stroke-linecap:round;stroke-dasharray:none;marker-start:url(#RoundedArrow);paint-order:markers fill stroke"
       d="m 800,1163.2624 v -20"
       id="path5"
       sodipodi:nodetypes="cc" />
  </g>
</svg>
